# xmcd
#
# Track frame offsets:
#	150
#	14430
#	31526
#	49402
#	66835
#	82597
#	99748
#	122611
#	140396
#	156631
#
# Disc length: 2308 seconds
#
# Revision: 0
# Processed by: cddbd v1.5.2PL0 Copyright (c) Steve Scherf et al.
# Submitted via: EasyCDDAExtractor 15.3.0.1
#
DISCID=7c09020a
DTITLE=Laura Voutilainen - KokoNainen 2013
DYEAR=2013
DGENRE=Suomi Pop-Iskelmä
TTITLE0=Kokonainen Nainen
TTITLE1=Pikku Myy
TTITLE2=Soittorasia
TTITLE3=Nyt Tai Ei Koskaan
TTITLE4=Karun Maan Kukka
TTITLE5=Oikee Oon
TTITLE6=Kirje Itselleni
TTITLE7=Aamuun
TTITLE8=Sankarittarien Yö
TTITLE9=Äiti Tähtipuutarhan
EXTD=
EXTT0=
EXTT1=
EXTT2=
EXTT3=
EXTT4=
EXTT5=
EXTT6=
EXTT7=
EXTT8=
EXTT9=
PLAYORDER=
